<svg id="Calque_1" data-name="Calque 1" xmlns="http://www.w3.org/2000/svg" viewBox="0 0 75 97.13"><title>LOGO</title><path d="M74.54,47a189.4,189.4,0,0,1-17,9.32c0,.28.08.55.11.83a34.53,34.53,0,0,1-.45,10.59,21,21,0,0,1-4.88,10,15.45,15.45,0,0,1-8.88,4.88,10.08,10.08,0,0,1-3.79.13,5.48,5.48,0,0,1-4.5-4.49A9.66,9.66,0,0,1,36,71.87a16.33,16.33,0,0,1,3.83-5.05,45.14,45.14,0,0,1,8.55-6c1.41-.82,2.86-1.58,4.28-2.36l.74-.41c-.07-1-.12-2-.23-3A27.65,27.65,0,0,0,51.34,47,18.83,18.83,0,0,0,49.78,44a10,10,0,0,0-8.25-4.67,16.45,16.45,0,0,0-10.67,3.09,1.36,1.36,0,0,0-.66,1.27q0,11,0,21.92c0,1.94-.13,3.89-.32,5.82A10.78,10.78,0,0,1,26,78.82a40.79,40.79,0,0,1-4.81,3.46l-.33-.45c.58-.53,1.16-1,1.69-1.53a10.77,10.77,0,0,0,3.3-8c0-15.49,0-31,0-46.48a22.59,22.59,0,0,0-.29-3.48,4,4,0,0,0-2.88-3.25,15.6,15.6,0,0,0-4.13-.64c-.77-.05-1.55,0-2.33,0-.22,0-.5,0-.46-.41a2.4,2.4,0,0,1,.48-.09l3.41-.09a14.37,14.37,0,0,0,8.07-2.39,1,1,0,0,1,1-.16c.34.12.68.24,1,.38a.72.72,0,0,1,.49.78c0,.75,0,1.51,0,2.26V42.46L31,42a16.64,16.64,0,0,1,11-2.9,15.48,15.48,0,0,1,12.14,7.39,22.68,22.68,0,0,1,3.28,8.81c0,.18.07.35.11.53,1.35-.23,14.58-7.44,17-9.25a7.38,7.38,0,0,0-.66-3.12,3.59,3.59,0,0,0-2.33-1.92,17.49,17.49,0,0,0-3-.61c-1.41-.13-2.84-.17-4.26-.17A17.86,17.86,0,0,1,46.6,26.1,19.39,19.39,0,0,1,51.87,8.71,21.24,21.24,0,0,1,64.18,2.3,23.69,23.69,0,0,1,80.1,4.87,19.62,19.62,0,0,1,90.24,18.42,22,22,0,0,1,87.63,34.3,31.27,31.27,0,0,1,80,43a2.54,2.54,0,0,0-1.06,2.27q0,18,0,35.91a21.73,21.73,0,0,1-1.42,8.14,14.59,14.59,0,0,1-11,9.22,20.18,20.18,0,0,1-6,.44,14.73,14.73,0,0,1-11.74-6.73,7.56,7.56,0,0,1-1.27-4.34A4.11,4.11,0,0,1,50.46,84a4.3,4.3,0,0,1,4.73,1.46,4.11,4.11,0,0,1,.14,4.86,5.28,5.28,0,0,1-1.95,1.75c-1.2.62-1.4,1.55-.8,2.81a5.13,5.13,0,0,0,2,2.09,11.49,11.49,0,0,0,4.43,1.54,15.15,15.15,0,0,0,5.33,0,10.9,10.9,0,0,0,7.32-5.18A19.17,19.17,0,0,0,74.21,86a34.25,34.25,0,0,0,.33-5.26V47Zm4.4-3.68.41-.27A38.12,38.12,0,0,0,84.6,38a23,23,0,0,0,5.78-15.66,19.3,19.3,0,0,0-4.6-12.42A21.66,21.66,0,0,0,70.72,2.34a23.58,23.58,0,0,0-7.49.44A20.84,20.84,0,0,0,50.38,11,18.93,18.93,0,0,0,47.1,26.84,17.56,17.56,0,0,0,64.22,40.25c1.63,0,3.26-.06,4.89-.13a13.61,13.61,0,0,0,7.23-2.28,1.23,1.23,0,0,1,1-.22,8.27,8.27,0,0,1,1.09.38.74.74,0,0,1,.5.79c0,.8,0,1.6,0,2.41ZM53.45,58.5c-.34.16-.53.24-.71.34-1.7.94-3.41,1.85-5.09,2.82A43.94,43.94,0,0,0,41.2,66.1a18.25,18.25,0,0,0-4.48,5.22,10.06,10.06,0,0,0-1.24,6.58,5.32,5.32,0,0,0,4.36,4.57,10.49,10.49,0,0,0,2.85-.07,9.55,9.55,0,0,0,5.69-2.76A14.6,14.6,0,0,0,52,73.37a40.48,40.48,0,0,0,1.55-12.43C53.51,60.17,53.48,59.41,53.45,58.5Z" transform="translate(-15.74 -1.91)"/><path d="M73.75,30a5.13,5.13,0,1,1,5.19-5.12A5.17,5.17,0,0,1,73.75,30Z" transform="translate(-15.74 -1.91)"/></svg>